<svg xmlns="http://www.w3.org/2000/svg" viewBox="0 0 500 500"><g id="freepik--Device--inject-84"><rect x="165.16" y="52.13" width="181.73" height="336.66" style="fill:#fff"></rect><path d="M346.89,389.29H165.16a.5.5,0,0,1-.5-.5V52.13a.5.5,0,0,1,.5-.5H346.89a.5.5,0,0,1,.5.5V388.79A.5.5,0,0,1,346.89,389.29Zm-181.23-1H346.39V52.63H165.66Z" style="fill:#263238"></path><rect x="204.08" y="80.94" width="33.81" height="12.15" rx="3.34" style="fill:#EB6424"></rect><path d="M234.55,93.6H207.43a3.86,3.86,0,0,1-3.85-3.85V84.29a3.86,3.86,0,0,1,3.85-3.85h27.12a3.86,3.86,0,0,1,3.85,3.85v5.46A3.86,3.86,0,0,1,234.55,93.6ZM207.43,81.44a2.86,2.86,0,0,0-2.85,2.85v5.46a2.86,2.86,0,0,0,2.85,2.85h27.12a2.86,2.86,0,0,0,2.85-2.85V84.29a2.86,2.86,0,0,0-2.85-2.85Z" style="fill:#263238"></path><path d="M336.54,278.76h-160a.5.5,0,0,1,0-1h160a.5.5,0,0,1,0,1Z" style="fill:#263238"></path><rect x="242.12" y="80.94" width="33.81" height="12.15" rx="3.34" style="fill:#EB6424"></rect><path d="M272.59,93.6H245.47a3.86,3.86,0,0,1-3.85-3.85V84.29a3.86,3.86,0,0,1,3.85-3.85h27.12a3.85,3.85,0,0,1,3.84,3.85v5.46A3.85,3.85,0,0,1,272.59,93.6ZM245.47,81.44a2.86,2.86,0,0,0-2.85,2.85v5.46a2.86,2.86,0,0,0,2.85,2.85h27.12a2.85,2.85,0,0,0,2.84-2.85V84.29a2.85,2.85,0,0,0-2.84-2.85Z" style="fill:#263238"></path><rect x="280.16" y="80.94" width="33.81" height="12.15" rx="3.34" style="fill:#EB6424"></rect><path d="M310.63,93.6H283.51a3.86,3.86,0,0,1-3.85-3.85V84.29a3.86,3.86,0,0,1,3.85-3.85h27.12a3.85,3.85,0,0,1,3.84,3.85v5.46A3.85,3.85,0,0,1,310.63,93.6ZM283.51,81.44a2.86,2.86,0,0,0-2.85,2.85v5.46a2.86,2.86,0,0,0,2.85,2.85h27.12a2.85,2.85,0,0,0,2.84-2.85V84.29a2.85,2.85,0,0,0-2.84-2.85Z" style="fill:#263238"></path><rect x="165.16" y="52.13" width="181.73" height="24.74" style="fill:#EB6424"></rect><path d="M346.89,77.37H165.16a.5.5,0,0,1-.5-.5V52.13a.5.5,0,0,1,.5-.5H346.89a.5.5,0,0,1,.5.5V76.87A.5.5,0,0,1,346.89,77.37Zm-181.23-1H346.39V52.63H165.66Z" style="fill:#263238"></path><path d="M324.09,68.83A3.12,3.12,0,1,0,321,71.94,3.12,3.12,0,0,0,324.09,68.83Z" style="fill:#fff"></path><path d="M321,72.44a3.62,3.62,0,1,1,3.62-3.61A3.62,3.62,0,0,1,321,72.44Zm0-6.23a2.62,2.62,0,1,0,2.62,2.62A2.63,2.63,0,0,0,321,66.21Z" style="fill:#263238"></path><path d="M332.54,68.83a3.12,3.12,0,1,0-3.11,3.11A3.12,3.12,0,0,0,332.54,68.83Z" style="fill:#fff"></path><path d="M329.43,72.44A3.62,3.62,0,1,1,333,68.83,3.62,3.62,0,0,1,329.43,72.44Zm0-6.23A2.62,2.62,0,1,0,332,68.83,2.62,2.62,0,0,0,329.43,66.21Z" style="fill:#263238"></path><path d="M341,68.83a3.12,3.12,0,1,0-3.12,3.11A3.12,3.12,0,0,0,341,68.83Z" style="fill:#fff"></path><path d="M337.88,72.44a3.62,3.62,0,1,1,3.62-3.61A3.61,3.61,0,0,1,337.88,72.44Zm0-6.23a2.62,2.62,0,1,0,2.62,2.62A2.62,2.62,0,0,0,337.88,66.21Z" style="fill:#263238"></path><rect x="165.16" y="362.29" width="181.73" height="26.49" style="fill:#EB6424"></rect><path d="M346.89,389.29H165.16a.5.5,0,0,1-.5-.5v-26.5a.5.5,0,0,1,.5-.5H346.89a.5.5,0,0,1,.5.5v26.5A.5.5,0,0,1,346.89,389.29Zm-181.23-1H346.39v-25.5H165.66Z" style="fill:#263238"></path><polygon points="291.63 52.13 165.16 272.76 165.16 351.7 336.88 52.13 291.63 52.13" style="opacity:0.04"></polygon><polygon points="346.89 190.02 343.88 187.85 234.57 380.95 237.55 388.79 346.89 388.79 346.89 190.02" style="opacity:0.04"></polygon><path d="M352.34,118.37a2.25,2.25,0,0,0,2.25-2.25V93.67a2.24,2.24,0,0,0-2.25-2.24,3,3,0,0,0-.42,0v-42A14.47,14.47,0,0,0,337.45,35H177.94a14.47,14.47,0,0,0-14.47,14.47V388.3a14.47,14.47,0,0,0,14.47,14.48H337.45a14.47,14.47,0,0,0,14.47-14.48V182.18a3,3,0,0,0,.42,0,2.25,2.25,0,0,0,2.25-2.25V157.53a2.25,2.25,0,0,0-2.25-2.25,3,3,0,0,0-.42,0v-5.07a2,2,0,0,0,.42,0,2.24,2.24,0,0,0,2.25-2.24V125.6a2.25,2.25,0,0,0-2.25-2.25,2,2,0,0,0-.42.05v-5.08A2,2,0,0,0,352.34,118.37ZM343.54,381H171.85V60H343.54Z" style="fill:#263238"></path></g><g id="freepik--Pictures--inject-84"><rect x="233.63" y="285.67" width="49.25" height="69.18" style="fill:#fff"></rect><path d="M282.88,355.35H233.63a.5.5,0,0,1-.5-.5V285.67a.51.51,0,0,1,.5-.5h49.25a.5.5,0,0,1,.5.5v69.18A.5.5,0,0,1,282.88,355.35Zm-48.75-1h48.25V286.17H234.13Z" style="fill:#263238"></path><polygon points="282.88 305.42 275.79 297.1 260.54 323.63 250.48 317.23 233.63 354.85 282.88 354.85 282.88 305.42" style="fill:#EB6424"></polygon><path d="M282.88,355.35H233.63a.49.49,0,0,1-.45-.7L250,317a.52.52,0,0,1,.31-.27.48.48,0,0,1,.42.05l9.62,6.13,15-26.08a.48.48,0,0,1,.39-.25.51.51,0,0,1,.42.17l7.09,8.33a.47.47,0,0,1,.12.32v49.43A.5.5,0,0,1,282.88,355.35Zm-48.47-1h48V305.61L275.87,298,261,323.88a.55.55,0,0,1-.32.24.5.5,0,0,1-.39-.07L250.7,318Z" style="fill:#263238"></path><path d="M250.78,298.62a5.19,5.19,0,1,1-5.18-5.18A5.19,5.19,0,0,1,250.78,298.62Z" style="fill:#EB6424"></path><path d="M245.6,304.31a5.69,5.69,0,1,1,5.68-5.69A5.69,5.69,0,0,1,245.6,304.31Zm0-10.37a4.69,4.69,0,1,0,4.68,4.68A4.69,4.69,0,0,0,245.6,293.94Z" style="fill:#263238"></path><rect x="287.62" y="285.67" width="49.25" height="69.18" style="fill:#fff"></rect><path d="M336.87,355.35H287.62a.5.5,0,0,1-.5-.5V285.67a.5.5,0,0,1,.5-.5h49.25a.51.51,0,0,1,.5.5v69.18A.5.5,0,0,1,336.87,355.35Zm-48.75-1h48.25V286.17H288.12Z" style="fill:#263238"></path><polygon points="336.87 305.42 329.77 297.1 314.52 323.63 304.46 317.23 287.62 354.85 336.87 354.85 336.87 305.42" style="fill:#EB6424"></polygon><path d="M336.87,355.35H287.62a.48.48,0,0,1-.42-.23.49.49,0,0,1,0-.47L304,317a.51.51,0,0,1,.32-.27.46.46,0,0,1,.41.05l9.62,6.13,15-26.08a.5.5,0,0,1,.39-.25.54.54,0,0,1,.43.17l7.09,8.33a.53.53,0,0,1,.12.32v49.43A.5.5,0,0,1,336.87,355.35Zm-48.48-1h48V305.61L329.85,298,315,323.88a.52.52,0,0,1-.32.24.47.47,0,0,1-.38-.07L304.68,318Z" style="fill:#263238"></path><path d="M304.77,298.62a5.19,5.19,0,1,1-5.19-5.18A5.2,5.2,0,0,1,304.77,298.62Z" style="fill:#EB6424"></path><path d="M299.58,304.31a5.69,5.69,0,1,1,5.69-5.69A5.69,5.69,0,0,1,299.58,304.31Zm0-10.37a4.69,4.69,0,1,0,4.69,4.68A4.69,4.69,0,0,0,299.58,293.94Z" style="fill:#263238"></path></g><g id="freepik--Ubication--inject-84"><rect x="179.65" y="285.67" width="49.25" height="69.18" style="fill:#fff"></rect><path d="M228.9,355.35H179.65a.5.5,0,0,1-.5-.5V285.67a.51.51,0,0,1,.5-.5H228.9a.5.5,0,0,1,.5.5v69.18A.5.5,0,0,1,228.9,355.35Zm-48.75-1H228.4V286.17H180.15Z" style="fill:#263238"></path><path d="M204.22,303.05A12.19,12.19,0,0,0,192,315.24C192,322,204.22,335,204.22,335s12.19-13,12.19-19.78A12.19,12.19,0,0,0,204.22,303.05Zm0,17a4.79,4.79,0,1,1,4.79-4.79A4.78,4.78,0,0,1,204.22,320Z" style="fill:#EB6424"></path><path d="M204.22,335.52a.48.48,0,0,1-.36-.16c-.51-.54-12.33-13.27-12.33-20.12a12.69,12.69,0,0,1,25.38,0c0,6.85-11.82,19.58-12.32,20.12A.52.52,0,0,1,204.22,335.52Zm0-32a11.7,11.7,0,0,0-11.69,11.69c0,5.81,9.67,16.81,11.69,19,2-2.23,11.69-13.23,11.69-19A11.7,11.7,0,0,0,204.22,303.55Zm0,17a5.29,5.29,0,1,1,5.29-5.29A5.29,5.29,0,0,1,204.22,320.53Zm0-9.58a4.29,4.29,0,1,0,4.29,4.29A4.29,4.29,0,0,0,204.22,311Z" style="fill:#263238"></path><path d="M228.4,323.67h-7.16a.5.5,0,0,1-.5-.5V294.69H192.57a.5.5,0,0,1-.5-.5V286.4a.51.51,0,0,1,.5-.5.5.5,0,0,1,.5.5v7.29h28.17a.51.51,0,0,1,.5.5v28.48h6.66a.5.5,0,0,1,.5.5A.5.5,0,0,1,228.4,323.67Z" style="fill:#263238"></path><path d="M180.11,309a.52.52,0,0,1-.33-.12.49.49,0,0,1-.05-.7l12.47-14.34a.5.5,0,0,1,.75.66l-12.46,14.33A.52.52,0,0,1,180.11,309Z" style="fill:#263238"></path><path d="M209.4,354.82a.5.5,0,0,1-.5-.5V337.81a.5.5,0,0,1,.5-.5h11.34V323.17a.5.5,0,0,1,.5-.5.5.5,0,0,1,.5.5v14.64a.5.5,0,0,1-.5.5H209.9v16A.5.5,0,0,1,209.4,354.82Z" style="fill:#263238"></path><path d="M228.71,344.85H188.52a.5.5,0,0,1-.5-.5v-9.78h-7.6a.5.5,0,0,1,0-1h8.1a.5.5,0,0,1,.5.5v9.78h39.69a.5.5,0,0,1,.5.5A.5.5,0,0,1,228.71,344.85Z" style="fill:#263238"></path><path d="M195.69,354.82a.5.5,0,0,1-.5-.5v-9.66a.5.5,0,0,1,1,0v9.66A.5.5,0,0,1,195.69,354.82Z" style="fill:#263238"></path><path d="M211.11,304.82a.49.49,0,0,1-.35-.15.5.5,0,0,1,0-.71l10-10V286.4a.5.5,0,0,1,.5-.5.51.51,0,0,1,.5.5v7.79a.53.53,0,0,1-.15.36l-10.13,10.12A.47.47,0,0,1,211.11,304.82Z" style="fill:#263238"></path><path d="M193.82,322.11H180.11a.5.5,0,0,1,0-1h13.71a.5.5,0,1,1,0,1Z" style="fill:#263238"></path></g><g id="freepik--Store--inject-84"><rect x="192.03" y="166.11" width="131.85" height="89.27" style="fill:#fff"></rect><path d="M323.87,255.88H192a.5.5,0,0,1-.5-.5V166.11a.5.5,0,0,1,.5-.5H323.87a.5.5,0,0,1,.5.5v89.27A.5.5,0,0,1,323.87,255.88Zm-131.34-1H323.37V166.61H192.53Z" style="fill:#263238"></path><rect x="192.03" y="237.86" width="131.85" height="17.53" style="fill:#EB6424"></rect><path d="M323.87,255.88H192a.5.5,0,0,1-.5-.5V237.86a.5.5,0,0,1,.5-.5H323.87a.5.5,0,0,1,.5.5v17.52A.5.5,0,0,1,323.87,255.88Zm-131.34-1H323.37V238.36H192.53Z" style="fill:#263238"></path><rect x="277.97" y="168.69" width="44.52" height="50.52" style="fill:#fff"></rect><path d="M322.49,219.72H278a.51.51,0,0,1-.5-.5V168.69a.51.51,0,0,1,.5-.5h44.52a.5.5,0,0,1,.5.5v50.53A.5.5,0,0,1,322.49,219.72Zm-44-1H322V169.19H278.47Z" style="fill:#263238"></path><rect x="193.46" y="168.69" width="44.52" height="50.52" style="fill:#fff"></rect><path d="M238,219.72H193.46a.5.5,0,0,1-.5-.5V168.69a.5.5,0,0,1,.5-.5H238a.51.51,0,0,1,.5.5v50.53A.51.51,0,0,1,238,219.72Zm-44-1h43.52V169.19H194Z" style="fill:#263238"></path><polygon points="322.49 192.33 277.97 207.88 277.97 168.69 322.49 168.69 322.49 192.33" style="fill:#263238"></polygon><path d="M278,208.38a.49.49,0,0,1-.5-.5V168.69a.51.51,0,0,1,.5-.5h44.52a.5.5,0,0,1,.5.5v23.64a.5.5,0,0,1-.33.47l-44.52,15.55A.51.51,0,0,1,278,208.38Zm.5-39.19v38L322,192V169.19Zm44,23.14h0Z" style="fill:#263238"></path><polygon points="237.97 192.33 193.46 210.81 193.46 168.69 237.97 168.69 237.97 192.33" style="fill:#263238"></polygon><path d="M193.46,211.31a.54.54,0,0,1-.28-.08.51.51,0,0,1-.22-.42V168.69a.5.5,0,0,1,.5-.5H238a.51.51,0,0,1,.5.5v23.64a.51.51,0,0,1-.31.46l-44.52,18.48A.43.43,0,0,1,193.46,211.31Zm.5-42.12v40.87L237.48,192V169.19Zm44,23.14Z" style="fill:#263238"></path><rect x="239.75" y="166.11" width="36.4" height="89.27" style="fill:#EB6424"></rect><path d="M276.15,255.88h-36.4a.5.5,0,0,1-.5-.5V166.11a.51.51,0,0,1,.5-.5h36.4a.51.51,0,0,1,.5.5v89.27A.5.5,0,0,1,276.15,255.88Zm-35.9-1h35.4V166.61h-35.4Z" style="fill:#263238"></path><path d="M241.81,214.87h32.28V252H241.81Zm0-45.39v37.15h32.28V169.48Z" style="fill:#fff"></path><path d="M274.09,252.52H241.81a.51.51,0,0,1-.5-.5V214.87a.5.5,0,0,1,.5-.5h32.28a.5.5,0,0,1,.5.5V252A.51.51,0,0,1,274.09,252.52Zm-31.78-1h31.28V215.37H242.31Zm31.78-44.39H241.81a.5.5,0,0,1-.5-.5V169.48a.51.51,0,0,1,.5-.5h32.28a.51.51,0,0,1,.5.5v37.15A.5.5,0,0,1,274.09,207.13Zm-31.78-1h31.28V170H242.31Z" style="fill:#263238"></path><polygon points="274.09 247.78 274.09 243.2 251.42 252.02 263 252.02 274.09 247.78" style="fill:#263238"></polygon><polygon points="241.81 195.84 274.09 181.75 274.09 169.48 241.81 169.48 241.81 195.84" style="fill:#263238"></polygon><polygon points="261.12 206.63 274.09 201.67 274.09 197.57 250.77 206.63 261.12 206.63" style="fill:#263238"></polygon><polygon points="241.81 246.54 274.09 233.3 274.09 214.87 241.81 214.87 241.81 246.54" style="fill:#263238"></polygon><path d="M190.19,167.88c0,.16,0,.33,0,.5a7.54,7.54,0,0,0,15.07,0c0-.17,0-.34,0-.5Z" style="fill:#fff"></path><path d="M197.7,176.41a8,8,0,0,1-8-8c0-.15,0-.29,0-.43v-.1a.5.5,0,0,1,.5-.47h15a.5.5,0,0,1,.5.47v.1c0,.14,0,.28,0,.43A8,8,0,0,1,197.7,176.41Zm-7-8a7,7,0,0,0,14.07,0Z" style="fill:#263238"></path><path d="M204.39,167.88c0,.16,0,.33,0,.5a7.53,7.53,0,0,0,15.06,0c0-.17,0-.34,0-.5Z" style="fill:#EB6424"></path><path d="M211.9,176.41a8,8,0,0,1-8-8c0-.15,0-.3,0-.44a.61.61,0,0,1,.51-.56h15a.5.5,0,0,1,.5.46c0,.24,0,.39,0,.54A8,8,0,0,1,211.9,176.41Zm-7-8a7,7,0,0,0,14.06,0Z" style="fill:#263238"></path><path d="M219.49,167.88c0,.16,0,.33,0,.5a7.53,7.53,0,0,0,15.06,0c0-.17,0-.34,0-.5Z" style="fill:#fff"></path><path d="M227,176.41a8,8,0,0,1-8-8c0-.15,0-.3,0-.45a.59.59,0,0,1,.5-.55h15a.5.5,0,0,1,.5.46c0,.24,0,.39,0,.54A8,8,0,0,1,227,176.41Zm-7-8a7,7,0,0,0,14.06,0Z" style="fill:#263238"></path><path d="M234.59,167.88c0,.16,0,.33,0,.5a7.53,7.53,0,0,0,15.06,0c0-.17,0-.34,0-.5Z" style="fill:#EB6424"></path><path d="M242.1,176.41a8,8,0,0,1-8-8c0-.15,0-.29,0-.43v-.1a.5.5,0,0,1,.5-.47h15a.5.5,0,0,1,.5.47v.1c0,.14,0,.28,0,.43A8,8,0,0,1,242.1,176.41Zm-7-8a7,7,0,0,0,14.06,0Z" style="fill:#263238"></path><path d="M249.69,167.88c0,.16,0,.33,0,.5a7.53,7.53,0,0,0,15.06,0c0-.17,0-.34,0-.5Z" style="fill:#fff"></path><path d="M257.2,176.41a8,8,0,0,1-8-8c0-.15,0-.29,0-.43v-.1a.5.5,0,0,1,.5-.47h15a.5.5,0,0,1,.5.47v.1c0,.14,0,.28,0,.43A8,8,0,0,1,257.2,176.41Zm-7-8a7,7,0,0,0,14.06,0Z" style="fill:#263238"></path><path d="M265,167.88c0,.16,0,.33,0,.5a7.53,7.53,0,1,0,15.06,0c0-.17,0-.34,0-.5Z" style="fill:#EB6424"></path><path d="M272.48,176.41a8,8,0,0,1-8-8c0-.15,0-.3,0-.45a.59.59,0,0,1,.5-.55h15a.5.5,0,0,1,.5.47c0,.23,0,.38,0,.53A8,8,0,0,1,272.48,176.41Zm-7-8a7,7,0,1,0,14.06,0Z" style="fill:#263238"></path><path d="M280.07,167.88c0,.16,0,.33,0,.5a7.53,7.53,0,0,0,15.06,0c0-.17,0-.34,0-.5Z" style="fill:#fff"></path><path d="M287.58,176.41a8,8,0,0,1-8-8c0-.15,0-.29,0-.43v-.1a.5.5,0,0,1,.5-.47h15a.5.5,0,0,1,.5.47v.1c0,.14,0,.28,0,.43A8,8,0,0,1,287.58,176.41Zm-7-8a7,7,0,0,0,14.06,0Z" style="fill:#263238"></path><path d="M295.89,167.88c0,.16,0,.33,0,.5a7.53,7.53,0,0,0,15.06,0c0-.17,0-.34,0-.5Z" style="fill:#EB6424"></path><path d="M303.4,176.41a8,8,0,0,1-8-8c0-.15,0-.29,0-.43v-.1a.5.5,0,0,1,.5-.47h15a.5.5,0,0,1,.5.47v.1c0,.14,0,.28,0,.43A8,8,0,0,1,303.4,176.41Zm-7-8a7,7,0,0,0,14.06,0Z" style="fill:#263238"></path><path d="M311,167.88c0,.16,0,.33,0,.5a7.53,7.53,0,0,0,15.06,0c0-.17,0-.34,0-.5Z" style="fill:#fff"></path><path d="M318.5,176.41a8,8,0,0,1-8-8c0-.15,0-.29,0-.43v-.1a.5.5,0,0,1,.5-.47h15a.5.5,0,0,1,.5.47c0,.23,0,.38,0,.53A8,8,0,0,1,318.5,176.41Zm-7-8a7,7,0,1,0,14.06,0Z" style="fill:#263238"></path><path d="M275,211.25a2.21,2.21,0,1,0-2.21,2.21A2.2,2.2,0,0,0,275,211.25Z" style="fill:#fff"></path><path d="M272.77,214a2.71,2.71,0,1,1,2.71-2.71A2.71,2.71,0,0,1,272.77,214Zm0-4.41a1.71,1.71,0,1,0,1.71,1.7A1.71,1.71,0,0,0,272.77,209.55Z" style="fill:#263238"></path><circle cx="272.77" cy="211.25" r="0.56" style="fill:#fff"></circle><path d="M272.77,212.32a1.07,1.07,0,1,1,1.07-1.07A1.07,1.07,0,0,1,272.77,212.32Zm0-1.13v.13l.07-.07A.07.07,0,0,0,272.77,211.19Z" style="fill:#263238"></path><polygon points="312.92 143.35 203.83 143.94 190.19 168.01 326.22 168.01 312.92 143.35" style="fill:#fff"></polygon><path d="M326.22,168.51h-136a.48.48,0,0,1-.43-.25.48.48,0,0,1,0-.49l13.63-24.08a.52.52,0,0,1,.43-.25l109.1-.59h0a.51.51,0,0,1,.44.26l13.3,24.66a.5.5,0,0,1-.44.74Zm-135.17-1H325.38l-12.76-23.66-108.5.59Z" style="fill:#263238"></path><polygon points="300.68 143.41 203.83 143.94 190.19 168.01 310.88 168.01 300.68 143.41" style="fill:#EB6424"></polygon><path d="M310.88,168.51H190.19a.48.48,0,0,1-.43-.25.48.48,0,0,1,0-.49l13.63-24.08a.52.52,0,0,1,.43-.25l96.86-.53h0a.5.5,0,0,1,.46.31l10.2,24.6a.49.49,0,0,1,0,.47A.51.51,0,0,1,310.88,168.51Zm-119.83-1H310.13l-9.78-23.6-96.23.53Z" style="fill:#263238"></path><polygon points="288.33 143.48 203.83 143.94 190.19 168.01 295.41 168.01 288.33 143.48" style="fill:#fff"></polygon><path d="M295.41,168.51H190.19a.48.48,0,0,1-.43-.25.48.48,0,0,1,0-.49l13.63-24.08a.52.52,0,0,1,.43-.25l84.5-.46a.49.49,0,0,1,.49.36l7.08,24.53a.46.46,0,0,1-.08.44A.48.48,0,0,1,295.41,168.51Zm-104.36-1h103.7L288,144l-83.83.46Z" style="fill:#263238"></path><polygon points="276.24 143.54 203.83 143.94 190.19 168.01 280.31 168.01 276.24 143.54" style="fill:#EB6424"></polygon><path d="M280.31,168.51H190.19a.48.48,0,0,1-.43-.25.48.48,0,0,1,0-.49l13.63-24.08a.52.52,0,0,1,.43-.25l72.42-.4h0a.51.51,0,0,1,.5.42l4.06,24.47a.51.51,0,0,1-.11.41A.5.5,0,0,1,280.31,168.51Zm-89.26-1h88.67l-3.9-23.46-71.7.39Z" style="fill:#263238"></path><polygon points="263.8 143.61 203.83 143.94 190.19 168.01 264.77 168.01 263.8 143.61" style="fill:#fff"></polygon><path d="M264.77,168.51H190.19a.48.48,0,0,1-.43-.25.48.48,0,0,1,0-.49l13.63-24.08a.52.52,0,0,1,.43-.25l60-.33h0a.5.5,0,0,1,.5.48l1,24.4a.47.47,0,0,1-.14.37A.48.48,0,0,1,264.77,168.51Zm-73.72-1h73.2l-.93-23.4-59.2.33Z" style="fill:#263238"></path><polygon points="251.55 143.68 203.83 143.94 190.19 168.01 249.5 168.01 251.55 143.68" style="fill:#EB6424"></polygon><path d="M249.5,168.51H190.19a.48.48,0,0,1-.43-.25.48.48,0,0,1,0-.49l13.63-24.08a.52.52,0,0,1,.43-.25l47.73-.26h0a.5.5,0,0,1,.5.54L250,168.05A.5.5,0,0,1,249.5,168.51Zm-58.45-1h58l2-23.33-46.89.26Z" style="fill:#263238"></path><polygon points="239.58 143.74 203.83 143.94 190.19 168.01 234.6 168.01 239.58 143.74" style="fill:#fff"></polygon><path d="M234.6,168.51H190.19a.48.48,0,0,1-.43-.25.48.48,0,0,1,0-.49l13.63-24.08a.52.52,0,0,1,.43-.25l35.76-.2a.58.58,0,0,1,.39.19.47.47,0,0,1,.1.41l-5,24.27A.5.5,0,0,1,234.6,168.51Zm-43.55-1h43.14L239,144.25l-34.85.19Z" style="fill:#263238"></path><polygon points="227.49 143.81 203.83 143.94 190.19 168.01 219.56 168.01 227.49 143.81" style="fill:#EB6424"></polygon><path d="M219.56,168.51H190.19a.48.48,0,0,1-.43-.25.48.48,0,0,1,0-.49l13.63-24.08a.52.52,0,0,1,.43-.25l23.67-.13h0a.54.54,0,0,1,.41.2.52.52,0,0,1,.07.45L220,168.17A.51.51,0,0,1,219.56,168.51Zm-28.51-1H219.2l7.6-23.2-22.68.13Z" style="fill:#263238"></path><polygon points="215.46 143.87 203.83 143.94 190.19 168.01 204.62 168.01 215.46 143.87" style="fill:#fff"></polygon><path d="M204.61,168.51H190.19a.48.48,0,0,1-.43-.25.48.48,0,0,1,0-.49l13.63-24.08a.52.52,0,0,1,.43-.25l11.63-.07a.5.5,0,0,1,.46.71l-10.84,24.14A.5.5,0,0,1,204.61,168.51Zm-13.56-1h13.24l10.39-23.13-10.56.06Z" style="fill:#263238"></path></g></svg>